<svg id="Group_14" data-name="Group 14" xmlns="http://www.w3.org/2000/svg" viewBox="0 0 166.377 65.918">
  <defs>
    <style>
      .cls-1 {
        fill: #191918;
      }
    </style>
  </defs>
  <path id="Path_7" data-name="Path 7" class="cls-1" d="M12.554,22.585a5.379,5.379,0,0,1-1.9.412c-1.408,0-2.245-.7-2.245-2.445V14.72h4.961V10.466H8.413V5.5H3.052v4.961H0v4.254H3.052v6.369c0,4.424,2.516,6.7,6.7,6.7a9.09,9.09,0,0,0,4.572-1.231Z" transform="translate(0 -2.26)"/>
  <path id="Path_8" data-name="Path 8" class="cls-1" d="M37.887,8.633a7.03,7.03,0,0,0-5.2,2.109V2.27H27.33V25.959h5.361V18.147c0-3.252,1.373-4.69,3.452-4.69,1.744,0,2.916,1.337,2.916,3.317v9.179h5.326V15.632C44.391,11.413,41.776,8.633,37.887,8.633Z" transform="translate(-11.229 -0.933)"/>
  <path id="Path_9" data-name="Path 9" class="cls-1" d="M72.48,24.67a3.885,3.885,0,0,1-7.2-1.314H77.612V21.984c-.1-5.5-3.918-8.914-8.678-8.914a8.7,8.7,0,0,0-8.914,8.914A8.677,8.677,0,0,0,68.9,30.9c3.606,0,6.51-1.5,8.048-4.607Zm-3.547-7.246a3.354,3.354,0,0,1,3.382,2.645H65.381A3.682,3.682,0,0,1,68.934,17.424Z" transform="translate(-24.66 -5.37)"/>
  <path id="Path_10" data-name="Path 10" class="cls-1" d="M275.351,89.634a5.061,5.061,0,1,1-5.037-5.014A5.115,5.115,0,0,1,275.351,89.634Z" transform="translate(-108.974 -34.768)"/>
  <path id="Path_11" data-name="Path 11" class="cls-1" d="M120.083,30.756h-5.455V29.4a7.62,7.62,0,0,1-5.314,1.873,7.916,7.916,0,0,1-5.927-2.557,9.05,9.05,0,0,1-2.457-6.545,9.032,9.032,0,0,1,2.457-6.51,7.925,7.925,0,0,1,5.927-2.557,7.62,7.62,0,0,1,5.314,1.873V13.613h5.455Zm-6.71-5.355a4.284,4.284,0,0,0,1.225-3.17,4.422,4.422,0,0,0-1.225-3.17,4.112,4.112,0,0,0-5.891-.035,4.383,4.383,0,0,0-1.161,3.17,4.412,4.412,0,0,0,1.161,3.2,3.928,3.928,0,0,0,2.963,1.225A3.994,3.994,0,0,0,113.373,25.4Z" transform="translate(-41.469 -5.382)"/>
  <path id="Path_12" data-name="Path 12" class="cls-1" d="M157.487,29.114a7.287,7.287,0,0,1-2.657,6,10.72,10.72,0,0,1-6.952,2.144c-4.053,0-6.916-1.361-8.59-4.124l4.53-2.457a6.509,6.509,0,0,0,1.838,1.638,4.55,4.55,0,0,0,2.144.442,4.4,4.4,0,0,0,3.069-1.09,3.949,3.949,0,0,0,1.19-3.069v-.477a7.55,7.55,0,0,1-5.114,1.638,7.944,7.944,0,0,1-5.827-2.421,8.169,8.169,0,0,1-2.421-6,7.943,7.943,0,0,1,2.421-5.9,8.029,8.029,0,0,1,5.827-2.351,7.561,7.561,0,0,1,5.114,1.638V13.6h5.349Zm-9.408-3.647a3.994,3.994,0,0,0,2.863-1.125,3.75,3.75,0,0,0,1.161-2.828,3.673,3.673,0,0,0-1.161-2.792,3.994,3.994,0,0,0-2.863-1.125,4.106,4.106,0,0,0-2.928,1.09,3.663,3.663,0,0,0-1.125,2.763,3.673,3.673,0,0,0,1.161,2.792,4.125,4.125,0,0,0,2.963,1.125Z" transform="translate(-56.987 -5.378)"/>
  <path id="Path_13" data-name="Path 13" class="cls-1" d="M177.81,25.4V8.3h5.449V25.409H177.81ZM183.7,3.17A3.158,3.158,0,1,1,180.532,0,3.164,3.164,0,0,1,183.7,3.17Z" transform="translate(-72.879)"/>
  <path id="Path_14" data-name="Path 14" class="cls-1" d="M194.94,26.271v-24h5.449v24Z" transform="translate(-80.094 -0.933)"/>
  <path id="Path_15" data-name="Path 15" class="cls-1" d="M227.352,23.638H214.809a4.529,4.529,0,0,0,1.331,2.421,3.425,3.425,0,0,0,2.351.884,3.808,3.808,0,0,0,3.647-1.974l4.837.99a7.992,7.992,0,0,1-3.27,3.988,9.915,9.915,0,0,1-5.214,1.331,8.85,8.85,0,0,1-9.031-9.1,8.849,8.849,0,0,1,9.061-9.067A8.473,8.473,0,0,1,224.76,15.6a9.205,9.205,0,0,1,2.557,6.575Zm-11.04-5.32a3.463,3.463,0,0,0-1.4,1.979h7.052a3.52,3.52,0,0,0-1.3-2.009,3.594,3.594,0,0,0-2.144-.683A3.812,3.812,0,0,0,216.312,18.318Z" transform="translate(-86.06 -5.386)"/>
  <path id="Path_16" data-name="Path 16" class="cls-1" d="M26.866,72.185a6.293,6.293,0,0,1,4.7,1.944,6.866,6.866,0,0,1,1.873,5.008v10.7h-5.42V80.292a3.242,3.242,0,0,0-.819-2.315,2.713,2.713,0,0,0-2.044-.884,3.012,3.012,0,0,0-2.451,1.125,4.924,4.924,0,0,0-.919,3.2v8.383H16.332V80.262a3.243,3.243,0,0,0-.819-2.315,2.719,2.719,0,0,0-2.08-.89,2.835,2.835,0,0,0-2.386,1.125,5.14,5.14,0,0,0-.854,3.2v8.383H4.75V72.663h5.455V74.23a6.432,6.432,0,0,1,5.043-2.08,6.092,6.092,0,0,1,5.591,2.9,7.128,7.128,0,0,1,6.033-2.9v.035Z" transform="translate(-1.952 -29.644)"/>
  <path id="Path_17" data-name="Path 17" class="cls-1" d="M74.3,74.791a8.38,8.38,0,0,1,2.728,6.439,8.488,8.488,0,0,1-2.728,6.51,9.424,9.424,0,0,1-6.645,2.521,9.7,9.7,0,0,1-6.746-2.521,8.407,8.407,0,0,1-2.763-6.51,8.289,8.289,0,0,1,2.763-6.439,9.669,9.669,0,0,1,6.746-2.521A9.4,9.4,0,0,1,74.3,74.791Zm-3.747,9.674a4.712,4.712,0,0,0,0-6.339A3.922,3.922,0,0,0,67.694,76.9a4.135,4.135,0,0,0-2.963,1.225A4.177,4.177,0,0,0,63.47,81.3a4.284,4.284,0,0,0,1.225,3.17,4.039,4.039,0,0,0,2.963,1.225A3.92,3.92,0,0,0,70.557,84.465Z" transform="translate(-23.892 -29.693)"/>
  <path id="Path_18" data-name="Path 18" class="cls-1" d="M106.03,72.189a6.333,6.333,0,0,1,4.837,1.944,7.165,7.165,0,0,1,1.838,5.149v10.5h-5.42V80.437a3.515,3.515,0,0,0-.819-2.421,2.719,2.719,0,0,0-2.115-.919,3.085,3.085,0,0,0-2.592,1.161,5.769,5.769,0,0,0-.919,3.576v7.942H95.39V72.667h5.449V74.3a6.9,6.9,0,0,1,5.249-2.144Z" transform="translate(-39.193 -29.648)"/>
  <path id="Path_19" data-name="Path 19" class="cls-1" d="M143.555,85.393,138,79.225h-.99v6.168h-5.45V61.51h5.45V74.117h.748l5.42-5.827h6.581l-7.5,8.148,8.283,8.961h-6.987Z" transform="translate(-54.054 -25.272)"/>
  <path id="Path_20" data-name="Path 20" class="cls-1" d="M181.5,82.678H168.959a4.529,4.529,0,0,0,1.331,2.421,3.425,3.425,0,0,0,2.351.884,3.808,3.808,0,0,0,3.647-1.974l4.837.99a7.992,7.992,0,0,1-3.27,3.988,9.915,9.915,0,0,1-5.214,1.331,9.085,9.085,0,1,1,.029-18.169,8.473,8.473,0,0,1,6.239,2.486,9.205,9.205,0,0,1,2.557,6.575Zm-11.04-5.314a3.462,3.462,0,0,0-1.4,1.979h7.052a3.52,3.52,0,0,0-1.3-2.009,3.594,3.594,0,0,0-2.144-.683A3.812,3.812,0,0,0,170.462,77.364Z" transform="translate(-67.222 -29.644)"/>
  <path id="Path_21" data-name="Path 21" class="cls-1" d="M205.371,95.895h-5.9l2.763-6.374L195.15,72.96h5.862l4.053,9.986,4.33-9.986h5.862Z" transform="translate(-80.181 -29.977)"/>
  <path id="Path_22" data-name="Path 22" class="cls-1" d="M235.828,84.241c.236,1.331,1.261,2.009,3.069,2.009a2.932,2.932,0,0,0,1.638-.406,1.181,1.181,0,0,0,.613-.99c0-.648-.577-1.055-1.7-1.261l-3.476-.683c-3.305-.648-4.972-2.286-4.972-4.972a5.06,5.06,0,0,1,2.044-4.195,8.442,8.442,0,0,1,5.314-1.6,9.315,9.315,0,0,1,5.178,1.331,5.67,5.67,0,0,1,2.557,3.576l-4.978.99a2.2,2.2,0,0,0-.919-1.432,3.2,3.2,0,0,0-1.944-.583,2.13,2.13,0,0,0-1.467.412,1.2,1.2,0,0,0-.442.954c0,.613.442,1.025,1.3,1.19l4.018.819a6.218,6.218,0,0,1,3.547,1.838,4.787,4.787,0,0,1,1.2,3.27,4.89,4.89,0,0,1-2.144,4.259,9.693,9.693,0,0,1-5.62,1.5,11.054,11.054,0,0,1-5.42-1.225A5.009,5.009,0,0,1,230.62,85.3Z" transform="translate(-94.754 -29.64)"/>
</svg>
